<?xml version="1.0" encoding="utf-8"?>
<!-- Generator: Adobe Illustrator 22.0.1, SVG Export Plug-In . SVG Version: 6.00 Build 0)  -->
<svg version="1.1" id="Camada_1" xmlns="http://www.w3.org/2000/svg" xmlns:xlink="http://www.w3.org/1999/xlink" x="0px" y="0px"
	 viewBox="0 0 539.7 100" style="enable-background:new 0 0 539.7 100;" xml:space="preserve">
<style type="text/css">
	.st0{fill:none;stroke:#000000;stroke-width:5;stroke-linecap:round;stroke-linejoin:round;stroke-miterlimit:10;}
	.st1{fill:#2BB7DA;}
	.st2{fill:#2BB7DA;stroke:#2BB7DA;stroke-width:2;stroke-miterlimit:10;}
	.st3{fill:url(#SVGID_1_);}
	.st4{fill:url(#SVGID_2_);}
	.st5{fill:url(#SVGID_3_);}
	.st6{fill:url(#SVGID_4_);}
	.st7{fill:url(#SVGID_5_);}
	.st8{fill:url(#SVGID_6_);}
	.st9{fill:url(#SVGID_7_);}
	.st10{fill:url(#SVGID_8_);}
	.st11{fill:url(#SVGID_9_);}
	.st12{fill:url(#SVGID_10_);}
	.st13{fill:url(#SVGID_11_);}
	.st14{fill:url(#SVGID_12_);}
	.st15{fill:url(#SVGID_13_);}
	.st16{fill:url(#SVGID_14_);}
	.st17{fill:url(#SVGID_15_);}
	.st18{fill:url(#SVGID_16_);}
	.st19{fill:url(#SVGID_17_);}
	.st20{fill:url(#SVGID_18_);}
	.st21{fill:url(#SVGID_19_);}
	.st22{fill:url(#SVGID_20_);}
	.st23{fill:url(#SVGID_21_);}
	.st24{fill:url(#SVGID_22_);}
	.st25{fill:url(#SVGID_23_);stroke:#2BB7DA;stroke-width:2;stroke-miterlimit:10;}
	.st26{fill:url(#SVGID_24_);stroke:#2BB7DA;stroke-width:2;stroke-miterlimit:10;}
	.st27{fill:url(#SVGID_25_);stroke:#2BB7DA;stroke-width:2;stroke-miterlimit:10;}
	.st28{fill:url(#SVGID_26_);stroke:#2BB7DA;stroke-width:2;stroke-miterlimit:10;}
	.st29{fill:url(#SVGID_27_);stroke:#2BB7DA;stroke-width:2;stroke-miterlimit:10;}
	.st30{fill:url(#SVGID_28_);stroke:#2BB7DA;stroke-width:2;stroke-miterlimit:10;}
	.st31{fill:none;}
	.st32{fill:url(#SVGID_29_);stroke:#021751;stroke-width:3.0189;stroke-linecap:round;stroke-linejoin:round;stroke-miterlimit:10;}
	.st33{fill:#BB131A;stroke:#021751;stroke-width:3.0189;stroke-linecap:round;stroke-linejoin:round;stroke-miterlimit:10;}
	.st34{fill:#ED1C24;stroke:#021751;stroke-width:3.0189;stroke-linecap:round;stroke-linejoin:round;stroke-miterlimit:10;}
	.st35{fill:#ADB3B4;stroke:#021751;stroke-width:3.0189;stroke-linecap:round;stroke-linejoin:round;stroke-miterlimit:10;}
	.st36{fill:#F1F2F2;stroke:#021751;stroke-width:3.0189;stroke-linecap:round;stroke-linejoin:round;stroke-miterlimit:10;}
	.st37{fill:url(#SVGID_30_);}
	.st38{fill:url(#SVGID_31_);}
	.st39{fill:url(#SVGID_32_);}
	.st40{fill:url(#SVGID_33_);}
	.st41{fill:url(#SVGID_34_);}
	.st42{fill:url(#SVGID_35_);stroke:#021751;stroke-width:2.3159;stroke-linecap:round;stroke-linejoin:round;stroke-miterlimit:10;}
	.st43{fill:url(#SVGID_36_);stroke:#021751;stroke-width:3.0189;stroke-linecap:round;stroke-linejoin:round;stroke-miterlimit:10;}
	.st44{fill:#79CE17;}
	.st45{fill:#7EE017;}
	.st46{fill:#ADB3B4;}
	.st47{fill:#F1F2F2;}
	.st48{fill:url(#SVGID_37_);}
	.st49{fill:url(#SVGID_38_);}
	.st50{fill:url(#SVGID_39_);}
	.st51{fill:url(#SVGID_40_);}
	.st52{fill:url(#SVGID_41_);}
	.st53{fill:url(#SVGID_42_);stroke:#021751;stroke-width:2.3159;stroke-linecap:round;stroke-linejoin:round;stroke-miterlimit:10;}
	.st54{fill:#FFFFFF;}
</style>
<g>
	<line class="st0" x1="11.8" y1="-55.8" x2="88.3" y2="-55.8"/>
	<path class="st0" d="M11.8-115.3v4.3c0,7,5.7,12.8,12.8,12.8S37.3-104,37.3-111v-4.3 M37.3-111c0,7,5.7,12.8,12.8,12.8
		S62.8-104,62.8-111v-4.3 M62.8-111c0,7,5.7,12.8,12.8,12.8S88.3-104,88.3-111v-4.3H11.8l8.5-17h59.5l8.5,17"/>
	<path class="st0" d="M20.3-55.8v-43.1"/>
	<path class="st0" d="M79.8-55.8v-43.1"/>
	<path class="st0" d="M37.3-55.8v-17c0-4.7,3.8-8.5,8.5-8.5h8.5c4.7,0,8.5,3.8,8.5,8.5v17"/>
</g>
<g>
	<path class="st1" d="M120.3,134.7c0-7.5,5.2-12.6,12.3-12.6c3.6,0,6.9,1.4,9,4.1l-0.7,0.7c-1.9-2.6-5-3.9-8.3-3.9
		c-6.5,0-11.3,4.8-11.3,11.7c0,7,4.8,11.8,11.3,11.8c3.3,0,6.4-1.3,8.3-3.9l0.7,0.7c-2.1,2.7-5.4,4.1-9,4.1
		C125.5,147.4,120.3,142.1,120.3,134.7z"/>
	<path class="st1" d="M146.2,134.7c0-7.4,5.2-12.6,12.2-12.6s12.2,5.2,12.2,12.6c0,7.4-5.2,12.7-12.2,12.7S146.2,142.1,146.2,134.7z
		 M169.5,134.7c0-6.9-4.8-11.7-11.2-11.7s-11.2,4.8-11.2,11.7s4.8,11.8,11.2,11.8S169.5,141.6,169.5,134.7z"/>
	<path class="st1" d="M219.5,132.5v14.8h-1v-14.8c0-6.2-3.2-9.5-8.7-9.5c-6.4,0-10.3,4.3-10.3,10.7v13.6h-1v-14.8
		c0-6.2-3.2-9.5-8.7-9.5c-6.4,0-10.3,4.3-10.3,10.7v13.6h-1v-25h1v6.6c1.5-4.2,5.1-6.8,10.2-6.8c5.1,0,8.5,2.6,9.5,7.5
		c1.3-4.5,5-7.5,10.5-7.5C215.8,122,219.5,125.7,219.5,132.5z"/>
	<path class="st1" d="M248.5,142.6l0.7,0.7c-2.2,2.7-5.6,4.1-9.2,4.1c-7.2,0-12.5-5.3-12.5-12.7c0-7.4,4.9-12.6,11.9-12.6
		c6.5,0,10.9,5.1,11.3,11.2l-22,4.3c1.2,5.4,5.5,8.9,11.3,8.9C243.4,146.5,246.5,145.2,248.5,142.6z M228.3,134.5
		c0,0.7,0,1.5,0.1,2.1l21.2-4.2c-0.6-5-4.5-9.5-10.3-9.5C232.9,123,228.3,127.9,228.3,134.5z M238.1,117.8h-1.5l6.8-5.3h1.9
		L238.1,117.8z"/>
	<path class="st1" d="M269.6,122v1h-0.3c-6,0-9.5,4.1-9.5,10.7v13.5h-1v-25h1v6.5C261.2,124.5,264.6,122,269.6,122z"/>
	<path class="st1" d="M273.7,134.7c0-7.5,5.2-12.6,12.3-12.6c3.6,0,6.9,1.4,9,4.1l-0.7,0.7c-1.9-2.6-5-3.9-8.3-3.9
		c-6.5,0-11.3,4.8-11.3,11.7c0,7,4.8,11.8,11.3,11.8c3.3,0,6.4-1.3,8.3-3.9l0.7,0.7c-2.1,2.7-5.4,4.1-9,4.1
		C278.9,147.4,273.7,142.1,273.7,134.7z"/>
	<path class="st1" d="M302.3,114c0-0.7,0.6-1.3,1.3-1.3s1.3,0.6,1.3,1.3s-0.6,1.3-1.3,1.3S302.3,114.7,302.3,114z M303,122.2h1v25
		h-1V122.2z"/>
	<path class="st1" d="M312.2,134.7c0-7.4,5.2-12.6,12.2-12.6s12.2,5.2,12.2,12.6c0,7.4-5.2,12.7-12.2,12.7
		C317.4,147.4,312.2,142.1,312.2,134.7z M335.5,134.7c0-6.9-4.8-11.7-11.2-11.7c-6.4,0-11.2,4.8-11.2,11.7s4.8,11.8,11.2,11.8
		S335.5,141.6,335.5,134.7z"/>
	<path class="st2" d="M368.6,145.7c-1.3,1.2-3.3,1.8-5.3,1.8c-4.8,0-7.5-2.7-7.5-7.4v-23.9h3.4v5.6h7.7v2.9h-7.7v15.2
		c0,3,1.5,4.6,4.4,4.6c1.5,0,2.8-0.4,3.8-1.3L368.6,145.7z"/>
	<path class="st2" d="M397.1,121.8v25.5h-3.3v-5c-2.1,3.4-5.6,5.3-9.8,5.3c-7.3,0-12.7-5.3-12.7-13s5.4-12.9,12.7-12.9
		c4.1,0,7.6,1.7,9.7,5v-4.8L397.1,121.8L397.1,121.8z M393.7,134.5c0-6-4.1-9.9-9.4-9.9c-5.4,0-9.5,4-9.5,9.9s4.1,9.9,9.5,9.9
		S393.7,140.4,393.7,134.5z"/>
	<path class="st2" d="M432.5,134.5c0,7.7-5.4,13-12.7,13c-4.2,0-7.7-1.8-9.8-5.3v5h-3.3v-35.9h3.4v15.3c2.1-3.3,5.6-5,9.7-5
		C427.1,121.6,432.5,126.8,432.5,134.5z M429.1,134.5c0-6-4.1-9.9-9.5-9.9s-9.5,4-9.5,9.9s4.1,9.9,9.5,9.9S429.1,140.4,429.1,134.5z
		"/>
	<path class="st2" d="M437,134.5c0-7.6,5.5-12.9,13-12.9s12.9,5.4,12.9,12.9s-5.5,13-12.9,13S437,142,437,134.5z M459.4,134.5
		c0-6-4-9.9-9.4-9.9s-9.5,4-9.5,9.9s4.1,9.9,9.5,9.9S459.4,140.4,459.4,134.5z"/>
	<path class="st2" d="M493.1,121.8v25.5h-3.3v-5c-2.1,3.4-5.6,5.3-9.8,5.3c-7.3,0-12.7-5.3-12.7-13s5.4-12.9,12.7-12.9
		c4.1,0,7.6,1.7,9.7,5v-4.8L493.1,121.8L493.1,121.8z M489.7,134.5c0-6-4.1-9.9-9.4-9.9c-5.4,0-9.5,4-9.5,9.9s4.1,9.9,9.5,9.9
		S489.7,140.4,489.7,134.5z M475.5,117.4h-2.1c0.1-3.2,1.8-5.3,4.4-5.3c3,0,4.5,3.3,6.3,3.3c1.5,0,2.4-1.2,2.5-3h2.1
		c-0.1,3.1-1.8,5.2-4.4,5.2c-3,0-4.4-3.3-6.3-3.3C476.5,114.3,475.6,115.4,475.5,117.4z"/>
	<path class="st2" d="M500.1,134.5c0-7.6,5.5-12.9,13-12.9c7.5,0,12.9,5.4,12.9,12.9s-5.5,13-12.9,13
		C505.7,147.5,500.1,142,500.1,134.5z M522.6,134.5c0-6-4-9.9-9.4-9.9c-5.4,0-9.5,4-9.5,9.9s4.1,9.9,9.5,9.9
		C518.5,144.4,522.6,140.4,522.6,134.5z"/>
</g>
<g>
	
		<radialGradient id="SVGID_1_" cx="117.95" cy="167.2898" r="11.6921" gradientTransform="matrix(1 0 0 -1 0 102)" gradientUnits="userSpaceOnUse">
		<stop  offset="1.027034e-07" style="stop-color:#29ABE2"/>
		<stop  offset="1" style="stop-color:#39B54A"/>
	</radialGradient>
	<path class="st3" d="M107.3-65.3c0-7.5,5.2-12.6,12.3-12.6c3.6,0,6.9,1.4,9,4.1l-0.7,0.7c-1.9-2.6-5-3.9-8.3-3.9
		c-6.5,0-11.3,4.8-11.3,11.7c0,7,4.8,11.8,11.3,11.8c3.3,0,6.4-1.3,8.3-3.9l0.7,0.7c-2.1,2.7-5.4,4.1-9,4.1
		C112.5-52.6,107.3-57.9,107.3-65.3z"/>
	
		<radialGradient id="SVGID_2_" cx="145.3372" cy="167.2898" r="12.4093" gradientTransform="matrix(1 0 0 -1 0 102)" gradientUnits="userSpaceOnUse">
		<stop  offset="1.027034e-07" style="stop-color:#29ABE2"/>
		<stop  offset="1" style="stop-color:#39B54A"/>
	</radialGradient>
	<path class="st4" d="M133.2-65.3c0-7.4,5.2-12.6,12.2-12.6s12.2,5.2,12.2,12.6s-5.2,12.7-12.2,12.7
		C138.4-52.6,133.2-57.9,133.2-65.3z M156.5-65.3c0-6.9-4.8-11.7-11.2-11.7s-11.2,4.8-11.2,11.7c0,6.9,4.8,11.8,11.2,11.8
		C151.7-53.5,156.5-58.4,156.5-65.3z"/>
	
		<radialGradient id="SVGID_3_" cx="186.1025" cy="167.3625" r="16.9693" gradientTransform="matrix(1 0 0 -1 0 102)" gradientUnits="userSpaceOnUse">
		<stop  offset="1.027034e-07" style="stop-color:#29ABE2"/>
		<stop  offset="1" style="stop-color:#39B54A"/>
	</radialGradient>
	<path class="st5" d="M206.5-67.5v14.8h-1v-14.8c0-6.2-3.2-9.5-8.7-9.5c-6.4,0-10.3,4.3-10.3,10.7v13.6h-1v-14.8
		c0-6.2-3.2-9.5-8.7-9.5c-6.4,0-10.3,4.3-10.3,10.7v13.6h-1v-25h1v6.6c1.5-4.2,5.1-6.8,10.2-6.8c5.1,0,8.5,2.6,9.5,7.5
		c1.3-4.5,5-7.5,10.5-7.5C202.8-78,206.5-74.3,206.5-67.5z"/>
	
		<radialGradient id="SVGID_4_" cx="226.0449" cy="172.05" r="14.8179" gradientTransform="matrix(1 0 0 -1 0 102)" gradientUnits="userSpaceOnUse">
		<stop  offset="1.027034e-07" style="stop-color:#29ABE2"/>
		<stop  offset="1" style="stop-color:#39B54A"/>
	</radialGradient>
	<path class="st6" d="M235.5-57.4l0.7,0.7c-2.2,2.7-5.6,4.1-9.2,4.1c-7.2,0-12.5-5.3-12.5-12.7s4.9-12.6,11.9-12.6
		c6.5,0,10.9,5.1,11.3,11.2l-22,4.3c1.2,5.4,5.5,8.9,11.3,8.9C230.4-53.5,233.5-54.8,235.5-57.4z M215.3-65.5c0,0.7,0,1.5,0.1,2.1
		l21.2-4.2c-0.6-5-4.5-9.5-10.3-9.5C219.9-77,215.3-72.1,215.3-65.5z M225.1-82.2h-1.5l6.8-5.3h1.9L225.1-82.2z"/>
	
		<radialGradient id="SVGID_5_" cx="251.2441" cy="167.3625" r="9.6852" gradientTransform="matrix(1 0 0 -1 0 102)" gradientUnits="userSpaceOnUse">
		<stop  offset="1.027034e-07" style="stop-color:#29ABE2"/>
		<stop  offset="1" style="stop-color:#39B54A"/>
	</radialGradient>
	<path class="st7" d="M256.6-78v1h-0.3c-6,0-9.5,4.1-9.5,10.7v13.5h-1v-25h1v6.5C248.2-75.5,251.6-78,256.6-78z"/>
	
		<radialGradient id="SVGID_6_" cx="271.35" cy="167.2898" r="11.705" gradientTransform="matrix(1 0 0 -1 0 102)" gradientUnits="userSpaceOnUse">
		<stop  offset="1.027034e-07" style="stop-color:#29ABE2"/>
		<stop  offset="1" style="stop-color:#39B54A"/>
	</radialGradient>
	<path class="st8" d="M260.7-65.3c0-7.5,5.2-12.6,12.3-12.6c3.6,0,6.9,1.4,9,4.1l-0.7,0.7c-1.9-2.6-5-3.9-8.3-3.9
		c-6.5,0-11.3,4.8-11.3,11.7c0,7,4.8,11.8,11.3,11.8c3.3,0,6.4-1.3,8.3-3.9l0.7,0.7c-2.1,2.7-5.4,4.1-9,4.1
		C265.9-52.6,260.7-57.9,260.7-65.3z"/>
	
		<radialGradient id="SVGID_7_" cx="290.5332" cy="172.0105" r="12.2202" gradientTransform="matrix(1 0 0 -1 0 102)" gradientUnits="userSpaceOnUse">
		<stop  offset="1.027034e-07" style="stop-color:#29ABE2"/>
		<stop  offset="1" style="stop-color:#39B54A"/>
	</radialGradient>
	<path class="st9" d="M289.3-86c0-0.7,0.6-1.3,1.3-1.3s1.3,0.6,1.3,1.3s-0.6,1.3-1.3,1.3S289.3-85.3,289.3-86z M290-77.8h1v25h-1
		V-77.8z"/>
	
		<radialGradient id="SVGID_8_" cx="311.3525" cy="167.2898" r="12.4092" gradientTransform="matrix(1 0 0 -1 0 102)" gradientUnits="userSpaceOnUse">
		<stop  offset="1.027034e-07" style="stop-color:#29ABE2"/>
		<stop  offset="1" style="stop-color:#39B54A"/>
	</radialGradient>
	<path class="st10" d="M299.2-65.3c0-7.4,5.2-12.6,12.2-12.6s12.2,5.2,12.2,12.6s-5.2,12.7-12.2,12.7
		C304.4-52.6,299.2-57.9,299.2-65.3z M322.5-65.3c0-6.9-4.8-11.7-11.2-11.7c-6.4,0-11.2,4.8-11.2,11.7c0,6.9,4.8,11.8,11.2,11.8
		C317.7-53.5,322.5-58.4,322.5-65.3z"/>
	
		<radialGradient id="SVGID_9_" cx="349.1646" cy="170.15" r="11.9653" gradientTransform="matrix(1 0 0 -1 0 102)" gradientUnits="userSpaceOnUse">
		<stop  offset="1.027034e-07" style="stop-color:#29ABE2"/>
		<stop  offset="1" style="stop-color:#39B54A"/>
	</radialGradient>
	<path class="st11" d="M355.6-54.3c-1.3,1.2-3.3,1.8-5.3,1.8c-4.8,0-7.5-2.7-7.5-7.4v-23.9h3.4v5.6h7.7v2.9h-7.7v15.2
		c0,3,1.5,4.6,4.4,4.6c1.5,0,2.8-0.4,3.8-1.3L355.6-54.3z"/>
	
		<radialGradient id="SVGID_10_" cx="371.2" cy="167.4836" r="12.9358" gradientTransform="matrix(1 0 0 -1 0 102)" gradientUnits="userSpaceOnUse">
		<stop  offset="1.027034e-07" style="stop-color:#29ABE2"/>
		<stop  offset="1" style="stop-color:#39B54A"/>
	</radialGradient>
	<path class="st12" d="M384.1-78.2v25.5h-3.3v-5c-2.1,3.4-5.6,5.3-9.8,5.3c-7.3,0-12.7-5.3-12.7-13s5.4-12.9,12.7-12.9
		c4.1,0,7.6,1.7,9.7,5v-4.8L384.1-78.2L384.1-78.2z M380.7-65.5c0-6-4.1-9.9-9.4-9.9c-5.4,0-9.5,4-9.5,9.9s4.1,9.9,9.5,9.9
		S380.7-59.6,380.7-65.5z"/>
	
		<radialGradient id="SVGID_11_" cx="406.6" cy="172.6" r="15.7165" gradientTransform="matrix(1 0 0 -1 0 102)" gradientUnits="userSpaceOnUse">
		<stop  offset="1.027034e-07" style="stop-color:#29ABE2"/>
		<stop  offset="1" style="stop-color:#39B54A"/>
	</radialGradient>
	<path class="st13" d="M419.5-65.5c0,7.7-5.4,13-12.7,13c-4.2,0-7.7-1.8-9.8-5.3v5h-3.3v-35.9h3.4v15.3c2.1-3.3,5.6-5,9.7-5
		C414.1-78.4,419.5-73.2,419.5-65.5z M416.1-65.5c0-6-4.1-9.9-9.5-9.9s-9.5,4-9.5,9.9s4.1,9.9,9.5,9.9S416.1-59.6,416.1-65.5z"/>
	
		<radialGradient id="SVGID_12_" cx="436.916" cy="167.4836" r="12.9503" gradientTransform="matrix(1 0 0 -1 0 102)" gradientUnits="userSpaceOnUse">
		<stop  offset="1.027034e-07" style="stop-color:#29ABE2"/>
		<stop  offset="1" style="stop-color:#39B54A"/>
	</radialGradient>
	<path class="st14" d="M424-65.5c0-7.6,5.5-12.9,13-12.9s12.9,5.4,12.9,12.9s-5.5,13-12.9,13S424-58,424-65.5z M446.4-65.5
		c0-6-4-9.9-9.4-9.9s-9.5,4-9.5,9.9s4.1,9.9,9.5,9.9S446.4-59.6,446.4-65.5z"/>
	
		<radialGradient id="SVGID_13_" cx="467.2" cy="172.2527" r="15.5101" gradientTransform="matrix(1 0 0 -1 0 102)" gradientUnits="userSpaceOnUse">
		<stop  offset="1.027034e-07" style="stop-color:#29ABE2"/>
		<stop  offset="1" style="stop-color:#39B54A"/>
	</radialGradient>
	<path class="st15" d="M480.1-78.2v25.5h-3.3v-5c-2.1,3.4-5.6,5.3-9.8,5.3c-7.3,0-12.7-5.3-12.7-13s5.4-12.9,12.7-12.9
		c4.1,0,7.6,1.7,9.7,5v-4.8L480.1-78.2L480.1-78.2z M476.7-65.5c0-6-4.1-9.9-9.4-9.9c-5.4,0-9.5,4-9.5,9.9s4.1,9.9,9.5,9.9
		S476.7-59.6,476.7-65.5z M462.5-82.6h-2.1c0.1-3.2,1.8-5.3,4.4-5.3c3,0,4.5,3.3,6.3,3.3c1.5,0,2.4-1.2,2.5-3h2.1
		c-0.1,3.1-1.8,5.2-4.4,5.2c-3,0-4.4-3.3-6.3-3.3C463.5-85.7,462.6-84.6,462.5-82.6z"/>
	
		<radialGradient id="SVGID_14_" cx="500.0986" cy="167.4836" r="12.9513" gradientTransform="matrix(1 0 0 -1 0 102)" gradientUnits="userSpaceOnUse">
		<stop  offset="1.027034e-07" style="stop-color:#29ABE2"/>
		<stop  offset="1" style="stop-color:#39B54A"/>
	</radialGradient>
	<path class="st16" d="M487.1-65.5c0-7.6,5.5-12.9,13-12.9S513-73,513-65.5s-5.5,13-12.9,13S487.1-58,487.1-65.5z M509.6-65.5
		c0-6-4-9.9-9.4-9.9s-9.5,4-9.5,9.9s4.1,9.9,9.5,9.9C505.5-55.6,509.6-59.6,509.6-65.5z"/>
</g>
<g>
	
		<linearGradient id="SVGID_15_" gradientUnits="userSpaceOnUse" x1="91.3" y1="-89.75" x2="112.6" y2="-89.75" gradientTransform="matrix(1 0 0 -1 0 102)">
		<stop  offset="1.027034e-07" style="stop-color:#29ABE2"/>
		<stop  offset="1" style="stop-color:#39B54A"/>
	</linearGradient>
	<path class="st17" d="M91.3,191.7c0-7.5,5.2-12.6,12.3-12.6c3.6,0,6.9,1.4,9,4.1l-0.7,0.7c-1.9-2.6-5-3.9-8.3-3.9
		c-6.5,0-11.3,4.8-11.3,11.7c0,7,4.8,11.8,11.3,11.8c3.3,0,6.4-1.3,8.3-3.9l0.7,0.7c-2.1,2.7-5.4,4.1-9,4.1
		C96.5,204.4,91.3,199.1,91.3,191.7z"/>
	
		<linearGradient id="SVGID_16_" gradientUnits="userSpaceOnUse" x1="117.2" y1="-89.75" x2="141.5051" y2="-89.75" gradientTransform="matrix(1 0 0 -1 0 102)">
		<stop  offset="1.027034e-07" style="stop-color:#29ABE2"/>
		<stop  offset="1" style="stop-color:#39B54A"/>
	</linearGradient>
	<path class="st18" d="M117.2,191.7c0-7.4,5.2-12.6,12.2-12.6s12.2,5.2,12.2,12.6c0,7.4-5.2,12.7-12.2,12.7
		C122.4,204.4,117.2,199.1,117.2,191.7z M140.5,191.7c0-6.9-4.8-11.7-11.2-11.7c-6.4,0-11.2,4.8-11.2,11.7s4.8,11.8,11.2,11.8
		S140.5,198.6,140.5,191.7z"/>
	
		<linearGradient id="SVGID_17_" gradientUnits="userSpaceOnUse" x1="149.6709" y1="-89.699" x2="190.5342" y2="-89.699" gradientTransform="matrix(1 0 0 -1 0 102)">
		<stop  offset="1.027034e-07" style="stop-color:#29ABE2"/>
		<stop  offset="1" style="stop-color:#39B54A"/>
	</linearGradient>
	<path class="st19" d="M190.5,189.5v14.8h-1v-14.8c0-6.2-3.2-9.5-8.7-9.5c-6.4,0-10.3,4.3-10.3,10.7v13.6h-1v-14.8
		c0-6.2-3.2-9.5-8.7-9.5c-6.4,0-10.3,4.3-10.3,10.7v13.6h-1v-25h1v6.6c1.5-4.2,5.1-6.8,10.2-6.8c5.1,0,8.5,2.6,9.5,7.5
		c1.3-4.5,5-7.5,10.5-7.5C186.8,179,190.5,182.7,190.5,189.5z"/>
	
		<linearGradient id="SVGID_18_" gradientUnits="userSpaceOnUse" x1="198.4248" y1="-84.95" x2="221.665" y2="-84.95" gradientTransform="matrix(1 0 0 -1 0 102)">
		<stop  offset="1.027034e-07" style="stop-color:#29ABE2"/>
		<stop  offset="1" style="stop-color:#39B54A"/>
	</linearGradient>
	<path class="st20" d="M219.5,199.6l0.7,0.7c-2.2,2.7-5.6,4.1-9.2,4.1c-7.2,0-12.5-5.3-12.5-12.7s4.9-12.6,11.9-12.6
		c6.5,0,10.9,5.1,11.3,11.2l-22,4.3c1.2,5.4,5.5,8.9,11.3,8.9C214.4,203.5,217.5,202.2,219.5,199.6z M199.3,191.5
		c0,0.7,0,1.5,0.1,2.1l21.2-4.2c-0.6-5-4.5-9.5-10.3-9.5C203.9,180,199.3,184.9,199.3,191.5z M209.1,174.8h-1.5l6.8-5.3h1.9
		L209.1,174.8z"/>
	
		<linearGradient id="SVGID_19_" gradientUnits="userSpaceOnUse" x1="229.8457" y1="-89.6" x2="240.6457" y2="-89.6" gradientTransform="matrix(1 0 0 -1 0 102)">
		<stop  offset="1.027034e-07" style="stop-color:#29ABE2"/>
		<stop  offset="1" style="stop-color:#39B54A"/>
	</linearGradient>
	<path class="st21" d="M240.6,179v1h-0.3c-6,0-9.5,4.1-9.5,10.7v13.5h-1v-25h1v6.5C232.2,181.5,235.6,179,240.6,179z"/>
	
		<linearGradient id="SVGID_20_" gradientUnits="userSpaceOnUse" x1="244.7" y1="-89.75" x2="266" y2="-89.75" gradientTransform="matrix(1 0 0 -1 0 102)">
		<stop  offset="1.027034e-07" style="stop-color:#29ABE2"/>
		<stop  offset="1" style="stop-color:#39B54A"/>
	</linearGradient>
	<path class="st22" d="M244.7,191.7c0-7.5,5.2-12.6,12.3-12.6c3.6,0,6.9,1.4,9,4.1l-0.7,0.7c-1.9-2.6-5-3.9-8.3-3.9
		c-6.5,0-11.3,4.8-11.3,11.7c0,7,4.8,11.8,11.3,11.8c3.3,0,6.4-1.3,8.3-3.9l0.7,0.7c-2.1,2.7-5.4,4.1-9,4.1
		C249.9,204.4,244.7,199.1,244.7,191.7z"/>
	
		<linearGradient id="SVGID_21_" gradientUnits="userSpaceOnUse" x1="273.2744" y1="-84.95" x2="275.792" y2="-84.95" gradientTransform="matrix(1 0 0 -1 0 102)">
		<stop  offset="1.027034e-07" style="stop-color:#29ABE2"/>
		<stop  offset="1" style="stop-color:#39B54A"/>
	</linearGradient>
	<path class="st23" d="M273.3,171c0-0.7,0.6-1.3,1.3-1.3s1.3,0.6,1.3,1.3s-0.6,1.3-1.3,1.3S273.3,171.7,273.3,171z M274,179.2h1v25
		h-1V179.2z"/>
	
		<linearGradient id="SVGID_22_" gradientUnits="userSpaceOnUse" x1="283.2" y1="-89.75" x2="307.5047" y2="-89.75" gradientTransform="matrix(1 0 0 -1 0 102)">
		<stop  offset="1.027034e-07" style="stop-color:#29ABE2"/>
		<stop  offset="1" style="stop-color:#39B54A"/>
	</linearGradient>
	<path class="st24" d="M283.2,191.7c0-7.4,5.2-12.6,12.2-12.6s12.2,5.2,12.2,12.6c0,7.4-5.2,12.7-12.2,12.7
		C288.4,204.4,283.2,199.1,283.2,191.7z M306.5,191.7c0-6.9-4.8-11.7-11.2-11.7c-6.4,0-11.2,4.8-11.2,11.7s4.8,11.8,11.2,11.8
		S306.5,198.6,306.5,191.7z"/>
	
		<linearGradient id="SVGID_23_" gradientUnits="userSpaceOnUse" x1="326.7734" y1="-86.85" x2="339.5557" y2="-86.85" gradientTransform="matrix(1 0 0 -1 0 102)">
		<stop  offset="1.027034e-07" style="stop-color:#29ABE2"/>
		<stop  offset="1" style="stop-color:#39B54A"/>
	</linearGradient>
	<path class="st25" d="M339.6,202.7c-1.3,1.2-3.3,1.8-5.3,1.8c-4.8,0-7.5-2.7-7.5-7.4v-23.9h3.4v5.6h7.7v2.9h-7.7v15.2
		c0,3,1.5,4.6,4.4,4.6c1.5,0,2.8-0.4,3.8-1.3L339.6,202.7z"/>
	
		<linearGradient id="SVGID_24_" gradientUnits="userSpaceOnUse" x1="342.3" y1="-89.65" x2="368.1" y2="-89.65" gradientTransform="matrix(1 0 0 -1 0 102)">
		<stop  offset="1.027034e-07" style="stop-color:#29ABE2"/>
		<stop  offset="1" style="stop-color:#39B54A"/>
	</linearGradient>
	<path class="st26" d="M368.1,178.8v25.5h-3.3v-5c-2.1,3.4-5.6,5.3-9.8,5.3c-7.3,0-12.7-5.3-12.7-13s5.4-12.9,12.7-12.9
		c4.1,0,7.6,1.7,9.7,5v-4.8h3.4V178.8z M364.7,191.5c0-6-4.1-9.9-9.4-9.9c-5.4,0-9.5,4-9.5,9.9s4.1,9.9,9.5,9.9
		S364.7,197.4,364.7,191.5z"/>
	
		<linearGradient id="SVGID_25_" gradientUnits="userSpaceOnUse" x1="377.7" y1="-84.4" x2="403.5" y2="-84.4" gradientTransform="matrix(1 0 0 -1 0 102)">
		<stop  offset="1.027034e-07" style="stop-color:#29ABE2"/>
		<stop  offset="1" style="stop-color:#39B54A"/>
	</linearGradient>
	<path class="st27" d="M403.5,191.5c0,7.7-5.4,13-12.7,13c-4.2,0-7.7-1.8-9.8-5.3v5h-3.3v-35.9h3.4v15.3c2.1-3.3,5.6-5,9.7-5
		C398.1,178.6,403.5,183.8,403.5,191.5z M400.1,191.5c0-6-4.1-9.9-9.5-9.9s-9.5,4-9.5,9.9s4.1,9.9,9.5,9.9S400.1,197.4,400.1,191.5z
		"/>
	
		<linearGradient id="SVGID_26_" gradientUnits="userSpaceOnUse" x1="407.9648" y1="-89.55" x2="433.8648" y2="-89.55" gradientTransform="matrix(1 0 0 -1 0 102)">
		<stop  offset="1.027034e-07" style="stop-color:#29ABE2"/>
		<stop  offset="1" style="stop-color:#39B54A"/>
	</linearGradient>
	<path class="st28" d="M408,191.5c0-7.6,5.5-12.9,13-12.9s12.9,5.4,12.9,12.9s-5.5,13-12.9,13S408,199,408,191.5z M430.4,191.5
		c0-6-4-9.9-9.4-9.9s-9.5,4-9.5,9.9s4.1,9.9,9.5,9.9S430.4,197.4,430.4,191.5z"/>
	
		<linearGradient id="SVGID_27_" gradientUnits="userSpaceOnUse" x1="438.3" y1="-84.85" x2="464.1" y2="-84.85" gradientTransform="matrix(1 0 0 -1 0 102)">
		<stop  offset="1.027034e-07" style="stop-color:#29ABE2"/>
		<stop  offset="1" style="stop-color:#39B54A"/>
	</linearGradient>
	<path class="st29" d="M464.1,178.8v25.5h-3.3v-5c-2.1,3.4-5.6,5.3-9.8,5.3c-7.3,0-12.7-5.3-12.7-13s5.4-12.9,12.7-12.9
		c4.1,0,7.6,1.7,9.7,5v-4.8h3.4V178.8z M460.7,191.5c0-6-4.1-9.9-9.4-9.9c-5.4,0-9.5,4-9.5,9.9s4.1,9.9,9.5,9.9
		S460.7,197.4,460.7,191.5z M446.5,174.4h-2.1c0.1-3.2,1.8-5.3,4.4-5.3c3,0,4.5,3.3,6.3,3.3c1.5,0,2.4-1.2,2.5-3h2.1
		c-0.1,3.1-1.8,5.2-4.4,5.2c-3,0-4.4-3.3-6.3-3.3C447.5,171.3,446.6,172.4,446.5,174.4z"/>
	
		<linearGradient id="SVGID_28_" gradientUnits="userSpaceOnUse" x1="471.1475" y1="-89.55" x2="497.0475" y2="-89.55" gradientTransform="matrix(1 0 0 -1 0 102)">
		<stop  offset="1.027034e-07" style="stop-color:#29ABE2"/>
		<stop  offset="1" style="stop-color:#39B54A"/>
	</linearGradient>
	<path class="st30" d="M471.1,191.5c0-7.6,5.5-12.9,13-12.9S497,184,497,191.5s-5.5,13-12.9,13S471.1,199,471.1,191.5z M493.6,191.5
		c0-6-4-9.9-9.4-9.9s-9.5,4-9.5,9.9s4.1,9.9,9.5,9.9C489.5,201.4,493.6,197.4,493.6,191.5z"/>
</g>
<rect x="172.3" y="213" class="st31" width="0" height="5.3"/>
<g>
	<g>
		
			<linearGradient id="SVGID_29_" gradientUnits="userSpaceOnUse" x1="228.95" y1="368.7185" x2="228.95" y2="450.2851" gradientTransform="matrix(1 0 0 -1 0 102)">
			<stop  offset="0" style="stop-color:#C3C8C9"/>
			<stop  offset="0.4376" style="stop-color:#D9DCDC"/>
			<stop  offset="1" style="stop-color:#F1F2F2"/>
		</linearGradient>
		<path class="st32" d="M151-355.8v88.1h95.7v-57.8c0-2.9,2.4-5.3,5.3-5.3h30.2c2.9,0,5.3,2.4,5.3,5.3v57.8h19.4v-88.1H151z
			 M230.6-289c0,3.1-2.5,5.6-5.6,5.6h-55.3c-3.1,0-5.6-2.5-5.6-5.6v-36.2c0-3.1,2.5-5.6,5.6-5.6H225c3.1,0,5.6,2.5,5.6,5.6V-289z"/>
		<path class="st33" d="M142-341.3L142-341.3c-8,0-14.5-6.5-14.5-14.5v-9.2h29v9.2C156.5-347.8,150-341.3,142-341.3z"/>
		<polygon class="st34" points="161.5,-391.4 180.7,-391.4 156.5,-365 127.5,-365 		"/>
		<path class="st35" d="M170.9-341.3L170.9-341.3c-8,0-14.5-6.5-14.5-14.5v-9.2h29v9.2C185.4-347.8,178.9-341.3,170.9-341.3z"/>
		<polygon class="st36" points="180.7,-391.4 200,-391.4 185.4,-365 156.5,-365 		"/>
		<path class="st33" d="M199.9-341.3L199.9-341.3c-8,0-14.5-6.5-14.5-14.5v-9.2h29v9.2C214.4-347.8,207.9-341.3,199.9-341.3z"/>
		<polygon class="st34" points="200,-391.4 219.3,-391.4 214.4,-365 185.4,-365 		"/>
		<path class="st35" d="M228.9-341.3L228.9-341.3c-8,0-14.5-6.5-14.5-14.5v-9.2h29v9.2C243.4-347.8,236.9-341.3,228.9-341.3z"/>
		<polygon class="st36" points="219.3,-391.4 238.5,-391.4 243.4,-365 214.4,-365 		"/>
		<path class="st33" d="M257.8-341.3L257.8-341.3c-8,0-14.5-6.5-14.5-14.5v-9.2h29v9.2C272.3-347.8,265.8-341.3,257.8-341.3z"/>
		<polygon class="st34" points="238.5,-391.4 257.8,-391.4 272.3,-365 243.4,-365 		"/>
		<path class="st35" d="M286.8-341.3L286.8-341.3c-8,0-14.5-6.5-14.5-14.5v-9.2h29v9.2C301.3-347.8,294.8-341.3,286.8-341.3z"/>
		<polygon class="st36" points="257.8,-391.4 277,-391.4 301.3,-365 272.3,-365 		"/>
		<path class="st33" d="M315.8-341.3L315.8-341.3c-8,0-14.5-6.5-14.5-14.5v-9.2h29v9.2C330.3-347.8,323.8-341.3,315.8-341.3z"/>
		<polygon class="st34" points="277,-391.4 296.3,-391.4 330.3,-365 301.3,-365 		"/>
	</g>
	<g>
		<g>
			<g>
				
					<linearGradient id="SVGID_30_" gradientUnits="userSpaceOnUse" x1="78.65" y1="250.9263" x2="78.65" y2="383.8102" gradientTransform="matrix(1 0 0 -1 0 102)">
					<stop  offset="0.4526" style="stop-color:#F7BD41"/>
					<stop  offset="0.4662" style="stop-color:#FDFB8D"/>
					<stop  offset="0.8515" style="stop-color:#F7BD41"/>
				</linearGradient>
				<path class="st37" d="M83.4-237c-14.1-5.4-20.3-10.1-20.3-19.6c0-7,5.3-15.3,19.2-15.3c9.2,0,16,3,19.3,4.8l3.6-10.7
					c-4.5-2.6-12.1-5-22.5-5c-19.8,0-33,11.8-33,27.7c0,14.4,10.3,23,26.9,28.9C90.5-220.9,96-215.5,96-206
					c0,10.3-7.9,17.4-21.3,17.4c-9.1,0-17.7-3-23.6-6.7l-3.3,11c5.4,3.6,16.2,6.5,26,6.5c24,0,35.7-13.6,35.7-29.3
					C109.4-222,100.7-230.3,83.4-237z"/>
				
					<linearGradient id="SVGID_31_" gradientUnits="userSpaceOnUse" x1="151.65" y1="250.9263" x2="151.65" y2="383.8102" gradientTransform="matrix(1 0 0 -1 0 102)">
					<stop  offset="0.4526" style="stop-color:#F7BD41"/>
					<stop  offset="0.4662" style="stop-color:#FDFB8D"/>
					<stop  offset="0.8515" style="stop-color:#F7BD41"/>
				</linearGradient>
				<path class="st38" d="M182.1-252.4h-13.3v44.9c0,2.4-0.5,4.8-1.2,6.8c-2.4,5.9-8.6,12.1-17.5,12.1c-12.1,0-16.3-9.4-16.3-23.3
					v-40.5h-13.3v42.8c0,25.7,13.8,32,25.2,32c13,0,20.7-7.7,24.2-13.6h0.3l0.8,11.9h11.8c-0.5-5.7-0.6-12.4-0.6-20L182.1-252.4
					L182.1-252.4z"/>
				
					<linearGradient id="SVGID_32_" gradientUnits="userSpaceOnUse" x1="232.55" y1="250.9263" x2="232.55" y2="383.8102" gradientTransform="matrix(1 0 0 -1 0 102)">
					<stop  offset="0.4526" style="stop-color:#F7BD41"/>
					<stop  offset="0.4662" style="stop-color:#FDFB8D"/>
					<stop  offset="0.8515" style="stop-color:#F7BD41"/>
				</linearGradient>
				<path class="st39" d="M236.4-254c-11.9,0-20.6,5.3-26,14.2h-0.3l-0.6-12.5h-11.9c0.3,7,0.6,14.5,0.6,23.9v79.2h13.2V-189h0.3
					c4.4,7.3,12.8,11.5,22.5,11.5c17.2,0,33.3-13,33.3-39.3C267.4-239.1,254.1-254,236.4-254z M231.9-188c-9.5,0-17.5-6.3-20-15.6
					c-0.3-1.7-0.6-3.5-0.6-5.4v-12.5c0-1.8,0.5-3.8,0.9-5.4c2.6-10,11-16.5,20.1-16.5c14.1,0,21.8,12.5,21.8,27.2
					C254.1-199.5,245.9-188,231.9-188z"/>
				
					<linearGradient id="SVGID_33_" gradientUnits="userSpaceOnUse" x1="305.0506" y1="250.9263" x2="305.0506" y2="383.8102" gradientTransform="matrix(1 0 0 -1 0 102)">
					<stop  offset="0.4526" style="stop-color:#F7BD41"/>
					<stop  offset="0.4662" style="stop-color:#FDFB8D"/>
					<stop  offset="0.8515" style="stop-color:#F7BD41"/>
				</linearGradient>
				<path class="st40" d="M307.1-254c-21.3,0-34.3,17.4-34.3,39.5s13.5,36.9,36,36.9c11.6,0,19.6-2.4,24.3-4.5l-2.3-9.5
					c-5,2.1-10.7,3.8-20.3,3.8c-13.3,0-24.8-7.4-25.1-25.4h51.4c0.2-1.4,0.5-3.5,0.5-6.2C337.4-233,331-254,307.1-254z M324.5-222.9
					h-38.8c1.1-9.2,7-21.6,20.4-21.6C321.1-244.5,324.7-231.4,324.5-222.9z"/>
				
					<linearGradient id="SVGID_34_" gradientUnits="userSpaceOnUse" x1="365.55" y1="250.9263" x2="365.55" y2="383.8102" gradientTransform="matrix(1 0 0 -1 0 102)">
					<stop  offset="0.4526" style="stop-color:#F7BD41"/>
					<stop  offset="0.4662" style="stop-color:#FDFB8D"/>
					<stop  offset="0.8515" style="stop-color:#F7BD41"/>
				</linearGradient>
				<path class="st41" d="M380.2-254c-8.9,0-16.9,6.2-20.3,16h-0.6l-0.5-14.4h-11.6c0.5,6.8,0.6,14.2,0.6,22.8v50.3H361v-39
					c0-2.3,0.3-4.4,0.6-6.2c1.8-10,8.5-17.1,17.8-17.1c1.8,0,3.2,0.2,4.5,0.5v-12.5C382.7-253.9,381.7-254,380.2-254z"/>
			</g>
		</g>
	</g>
	
		<linearGradient id="SVGID_35_" gradientUnits="userSpaceOnUse" x1="278.1" y1="397.2391" x2="278.1" y2="406.6435" gradientTransform="matrix(1 0 0 -1 0 102)">
		<stop  offset="0" style="stop-color:#C3C8C9"/>
		<stop  offset="0.4376" style="stop-color:#D9DCDC"/>
		<stop  offset="1" style="stop-color:#F1F2F2"/>
	</linearGradient>
	<path class="st42" d="M283.2-300.4c0,2.8-2.3,5.1-5.1,5.1c-2.8,0-5.1-2.3-5.1-5.1c0-2.8,2.3-5.1,5.1-5.1
		C281-305.5,283.2-303.2,283.2-300.4z"/>
</g>
<g>
	
		<linearGradient id="SVGID_36_" gradientUnits="userSpaceOnUse" x1="633.95" y1="318.7185" x2="633.95" y2="400.2851" gradientTransform="matrix(1 0 0 -1 0 102)">
		<stop  offset="0" style="stop-color:#C3C8C9"/>
		<stop  offset="0.4376" style="stop-color:#D9DCDC"/>
		<stop  offset="1" style="stop-color:#F1F2F2"/>
	</linearGradient>
	<path class="st43" d="M556-305.8v88.1h95.7v-57.8c0-2.9,2.4-5.3,5.3-5.3h30.2c2.9,0,5.3,2.4,5.3,5.3v57.8h19.4v-88.1L556-305.8
		L556-305.8z M635.6-239c0,3.1-2.5,5.6-5.6,5.6h-55.3c-3.1,0-5.6-2.5-5.6-5.6v-36.2c0-3.1,2.5-5.6,5.6-5.6H630
		c3.1,0,5.6,2.5,5.6,5.6V-239z"/>
	<path class="st33" d="M547-291.3L547-291.3c-8,0-14.5-6.5-14.5-14.5v-9.2h29v9.2C561.5-297.8,555-291.3,547-291.3z"/>
	<polygon class="st34" points="566.5,-341.4 585.7,-341.4 561.5,-315 532.5,-315 	"/>
	<path class="st35" d="M575.9-291.3L575.9-291.3c-8,0-14.5-6.5-14.5-14.5v-9.2h29v9.2C590.4-297.8,583.9-291.3,575.9-291.3z"/>
	<polygon class="st36" points="585.7,-341.4 605,-341.4 590.4,-315 561.5,-315 	"/>
	<path class="st33" d="M604.9-291.3L604.9-291.3c-8,0-14.5-6.5-14.5-14.5v-9.2h29v9.2C619.4-297.8,612.9-291.3,604.9-291.3z"/>
	<polygon class="st34" points="605,-341.4 624.3,-341.4 619.4,-315 590.4,-315 	"/>
	<path class="st35" d="M633.9-291.3L633.9-291.3c-8,0-14.5-6.5-14.5-14.5v-9.2h29v9.2C648.4-297.8,641.9-291.3,633.9-291.3z"/>
	<polygon class="st36" points="624.3,-341.4 643.5,-341.4 648.4,-315 619.4,-315 	"/>
	<path class="st33" d="M662.8-291.3L662.8-291.3c-8,0-14.5-6.5-14.5-14.5v-9.2h29v9.2C677.3-297.8,670.8-291.3,662.8-291.3z"/>
	<polygon class="st34" points="643.5,-341.4 662.8,-341.4 677.3,-315 648.4,-315 	"/>
	<path class="st35" d="M691.8-291.3L691.8-291.3c-8,0-14.5-6.5-14.5-14.5v-9.2h29v9.2C706.3-297.8,699.8-291.3,691.8-291.3z"/>
	<polygon class="st36" points="662.8,-341.4 682,-341.4 706.3,-315 677.3,-315 	"/>
	<path class="st33" d="M720.8-291.3L720.8-291.3c-8,0-14.5-6.5-14.5-14.5v-9.2h29v9.2C735.3-297.8,728.8-291.3,720.8-291.3z"/>
	<polygon class="st34" points="682,-341.4 701.3,-341.4 735.3,-315 706.3,-315 	"/>
</g>
<g>
	<path class="st2" d="M40.3,118.6v36.7h39.9v-24.1c0-1.2,1-2.2,2.2-2.2H95c1.2,0,2.2,1,2.2,2.2v24.1h8.1v-36.7
		C105.3,118.6,40.3,118.6,40.3,118.6z M73.4,146.5c0,1.3-1,2.3-2.3,2.3h-23c-1.3,0-2.3-1-2.3-2.3v-15.1c0-1.3,1-2.3,2.3-2.3h23
		c1.3,0,2.3,1,2.3,2.3V146.5z"/>
	<path class="st44" d="M36.5,124.7L36.5,124.7c-3.3,0-6-2.7-6-6v-3.8h12.1v3.8C42.6,121.9,39.9,124.7,36.5,124.7z"/>
	<polygon class="st45" points="44.7,103.8 52.7,103.8 42.6,114.8 30.5,114.8 	"/>
	<path class="st46" d="M48.6,124.7L48.6,124.7c-3.3,0-6-2.7-6-6v-3.8h12.1v3.8C54.6,121.9,51.9,124.7,48.6,124.7z"/>
	<polygon class="st47" points="52.7,103.8 60.7,103.8 54.6,114.8 42.6,114.8 	"/>
	<path class="st44" d="M60.7,124.7L60.7,124.7c-3.3,0-6-2.7-6-6v-3.8h12.1v3.8C66.7,121.9,64,124.7,60.7,124.7z"/>
	<polygon class="st45" points="60.7,103.8 68.7,103.8 66.7,114.8 54.6,114.8 	"/>
	<path class="st46" d="M72.7,124.7L72.7,124.7c-3.3,0-6-2.7-6-6v-3.8h12.1v3.8C78.8,121.9,76.1,124.7,72.7,124.7z"/>
	<polygon class="st47" points="68.7,103.8 76.8,103.8 78.8,114.8 66.7,114.8 	"/>
	<path class="st44" d="M84.8,124.7L84.8,124.7c-3.3,0-6-2.7-6-6v-3.8h12.1v3.8C90.9,121.9,88.2,124.7,84.8,124.7z"/>
	<polygon class="st45" points="76.8,103.8 84.8,103.8 90.9,114.8 78.8,114.8 	"/>
	<path class="st46" d="M96.9,124.7L96.9,124.7c-3.3,0-6-2.7-6-6v-3.8H103v3.8C102.9,121.9,100.2,124.7,96.9,124.7z"/>
	<polygon class="st47" points="84.8,103.8 92.8,103.8 102.9,114.8 90.9,114.8 	"/>
	<path class="st44" d="M109,124.7L109,124.7c-3.3,0-6-2.7-6-6v-3.8h12v3.8C115,121.9,112.3,124.7,109,124.7z"/>
	<polygon class="st45" points="92.8,103.8 100.8,103.8 115,114.8 102.9,114.8 	"/>
</g>
<g>
	<g>
		<g>
			
				<linearGradient id="SVGID_37_" gradientUnits="userSpaceOnUse" x1="483.4505" y1="200.9263" x2="483.4505" y2="333.8102" gradientTransform="matrix(1 0 0 -1 0 102)">
				<stop  offset="0.4526" style="stop-color:#F7BD41"/>
				<stop  offset="0.4662" style="stop-color:#FDFB8D"/>
				<stop  offset="0.8515" style="stop-color:#F7BD41"/>
			</linearGradient>
			<path class="st48" d="M488.4-187c-14.1-5.4-20.3-10.1-20.3-19.6c0-7,5.3-15.3,19.2-15.3c9.2,0,16,3,19.3,4.8l3.6-10.7
				c-4.5-2.6-12.1-5-22.5-5c-19.8,0-33,11.8-33,27.7c0,14.4,10.3,23,26.9,28.9c13.8,5.3,19.2,10.7,19.2,20.3
				c0,10.3-7.9,17.4-21.3,17.4c-9.1,0-17.7-3-23.6-6.7l-3.3,11c5.4,3.6,16.2,6.5,26,6.5c24,0,35.7-13.6,35.7-29.3
				C514.4-172,505.7-180.3,488.4-187z"/>
			
				<linearGradient id="SVGID_38_" gradientUnits="userSpaceOnUse" x1="556.65" y1="200.9263" x2="556.65" y2="333.8102" gradientTransform="matrix(1 0 0 -1 0 102)">
				<stop  offset="0.4526" style="stop-color:#F7BD41"/>
				<stop  offset="0.4662" style="stop-color:#FDFB8D"/>
				<stop  offset="0.8515" style="stop-color:#F7BD41"/>
			</linearGradient>
			<path class="st49" d="M587.1-202.4h-13.3v44.9c0,2.4-0.5,4.8-1.2,6.8c-2.4,5.9-8.6,12.1-17.5,12.1c-12.1,0-16.3-9.4-16.3-23.3
				v-40.5h-13.3v42.8c0,25.7,13.8,32,25.2,32c13,0,20.7-7.7,24.2-13.6h0.3l0.8,11.9h11.8c-0.5-5.7-0.6-12.4-0.6-20v-53.1H587.1z"/>
			
				<linearGradient id="SVGID_39_" gradientUnits="userSpaceOnUse" x1="637.55" y1="200.9263" x2="637.55" y2="333.8102" gradientTransform="matrix(1 0 0 -1 0 102)">
				<stop  offset="0.4526" style="stop-color:#F7BD41"/>
				<stop  offset="0.4662" style="stop-color:#FDFB8D"/>
				<stop  offset="0.8515" style="stop-color:#F7BD41"/>
			</linearGradient>
			<path class="st50" d="M641.4-204c-11.9,0-20.6,5.3-26,14.2h-0.3l-0.6-12.5h-11.9c0.3,7,0.6,14.5,0.6,23.9v79.2h13.2V-139h0.3
				c4.4,7.3,12.8,11.5,22.5,11.5c17.2,0,33.3-13,33.3-39.3C672.4-189.1,659.1-204,641.4-204z M636.9-138c-9.5,0-17.5-6.3-20-15.6
				c-0.3-1.7-0.6-3.5-0.6-5.4v-12.5c0-1.8,0.5-3.8,0.9-5.4c2.6-10,11-16.5,20.1-16.5c14.1,0,21.8,12.5,21.8,27.2
				C659.1-149.5,650.9-138,636.9-138z"/>
			
				<linearGradient id="SVGID_40_" gradientUnits="userSpaceOnUse" x1="710.0506" y1="200.9263" x2="710.0506" y2="333.8102" gradientTransform="matrix(1 0 0 -1 0 102)">
				<stop  offset="0.4526" style="stop-color:#F7BD41"/>
				<stop  offset="0.4662" style="stop-color:#FDFB8D"/>
				<stop  offset="0.8515" style="stop-color:#F7BD41"/>
			</linearGradient>
			<path class="st51" d="M712.1-204c-21.3,0-34.3,17.4-34.3,39.5s13.5,36.9,36,36.9c11.6,0,19.6-2.4,24.3-4.5l-2.3-9.5
				c-5,2.1-10.7,3.8-20.3,3.8c-13.3,0-24.8-7.4-25.1-25.4h51.4c0.2-1.4,0.5-3.5,0.5-6.2C742.4-183,736-204,712.1-204z M729.5-172.9
				h-38.8c1.1-9.2,7-21.6,20.4-21.6C726.1-194.5,729.7-181.4,729.5-172.9z"/>
			
				<linearGradient id="SVGID_41_" gradientUnits="userSpaceOnUse" x1="770.55" y1="200.9263" x2="770.55" y2="333.8102" gradientTransform="matrix(1 0 0 -1 0 102)">
				<stop  offset="0.4526" style="stop-color:#F7BD41"/>
				<stop  offset="0.4662" style="stop-color:#FDFB8D"/>
				<stop  offset="0.8515" style="stop-color:#F7BD41"/>
			</linearGradient>
			<path class="st52" d="M785.2-204c-8.9,0-16.9,6.2-20.3,16h-0.6l-0.5-14.4h-11.6c0.5,6.8,0.6,14.2,0.6,22.8v50.3H766v-39
				c0-2.3,0.3-4.4,0.6-6.2c1.8-10,8.5-17.1,17.8-17.1c1.8,0,3.2,0.2,4.5,0.5v-12.5C787.7-203.9,786.7-204,785.2-204z"/>
		</g>
	</g>
</g>
<linearGradient id="SVGID_42_" gradientUnits="userSpaceOnUse" x1="683.1" y1="347.2391" x2="683.1" y2="356.6435" gradientTransform="matrix(1 0 0 -1 0 102)">
	<stop  offset="0" style="stop-color:#C3C8C9"/>
	<stop  offset="0.4376" style="stop-color:#D9DCDC"/>
	<stop  offset="1" style="stop-color:#F1F2F2"/>
</linearGradient>
<path class="st53" d="M688.2-250.4c0,2.8-2.3,5.1-5.1,5.1s-5.1-2.3-5.1-5.1s2.3-5.1,5.1-5.1C686-255.5,688.2-253.2,688.2-250.4z"/>
<rect x="43" y="129" class="st1" width="32" height="22"/>
<g>
	<g>
		<path class="st1" d="M104.9,53c0-7.7,5.7-13.1,13.6-13.1c4.6,0,8.4,1.9,10.5,5.5l-3.5,2.3c-1.6-2.5-4.2-3.7-7-3.7
			c-5,0-8.8,3.5-8.8,9c0,5.6,3.8,9.1,8.8,9.1c2.8,0,5.3-1.2,7-3.7l3.5,2.2c-2,3.6-5.9,5.5-10.5,5.5C110.6,66.1,104.9,60.7,104.9,53z
			"/>
		<path class="st1" d="M132.2,53c0-7.7,5.7-13.1,13.4-13.1s13.3,5.4,13.3,13.1c0,7.6-5.6,13.1-13.3,13.1S132.2,60.7,132.2,53z
			 M154.1,53c0-5.5-3.7-9-8.6-9s-8.7,3.5-8.7,9s3.7,9.1,8.7,9.1S154.1,58.5,154.1,53z"/>
		<path class="st1" d="M207.9,51.1v14.8h-4.6V51.6c0-5-2.4-7.5-6.6-7.5c-4.6,0-7.7,3-7.7,8.5v13.2h-4.6V51.6c0-5-2.4-7.5-6.6-7.5
			c-4.6,0-7.7,3-7.7,8.5v13.2h-4.6V40.2h4.5V44c1.8-2.6,5-4.1,8.9-4.1s7.2,1.5,8.9,4.7c1.9-2.9,5.5-4.7,9.9-4.7
			C203.6,39.9,207.9,43.5,207.9,51.1z"/>
		<path class="st1" d="M235.6,59l2.5,3c-2.3,2.7-5.8,4.2-10.1,4.2c-8.3,0-13.8-5.5-13.8-13.1S219.6,40,227.1,40
			c7,0,12.5,4.9,12.6,12.6l-20.4,4c1.3,3.5,4.5,5.6,8.8,5.6C231.2,62.1,233.7,61.1,235.6,59z M218.7,52.8v0.5l16.4-3.1
			c-0.8-3.7-3.9-6.3-8-6.3C222.2,43.9,218.7,47.4,218.7,52.8z M227.6,36.5h-4.4l6.6-6.3h5.9L227.6,36.5z"/>
		<path class="st1" d="M260,39.9v4.5c-0.4,0-0.7,0-1.1,0c-5,0-8.1,3-8.1,8.7v12.8h-4.6V40.2h4.5v4.3C252.3,41.5,255.5,39.9,260,39.9
			z"/>
		<path class="st1" d="M263.1,53c0-7.7,5.7-13.1,13.6-13.1c4.6,0,8.4,1.9,10.5,5.5l-3.5,2.3c-1.6-2.5-4.2-3.7-7-3.7
			c-5,0-8.8,3.5-8.8,9c0,5.6,3.8,9.1,8.8,9.1c2.8,0,5.3-1.2,7-3.7l3.5,2.2c-2,3.6-5.9,5.5-10.5,5.5C268.8,66.1,263.1,60.7,263.1,53z
			"/>
		<path class="st1" d="M292.3,32.2c0-1.7,1.4-3.1,3.1-3.1c1.8,0,3.1,1.3,3.1,3c0,1.7-1.3,3.1-3.1,3.1
			C293.7,35.3,292.3,33.9,292.3,32.2z M293.1,40.2h4.6v25.7h-4.6V40.2z"/>
		<path class="st1" d="M304.3,53c0-7.7,5.7-13.1,13.4-13.1S331,45.3,331,53c0,7.6-5.6,13.1-13.3,13.1S304.3,60.7,304.3,53z
			 M326.2,53c0-5.5-3.7-9-8.6-9s-8.7,3.5-8.7,9s3.7,9.1,8.7,9.1S326.2,58.5,326.2,53z"/>
		<path class="st2" d="M363.6,64.4c-1.5,1.2-3.6,1.7-5.8,1.7c-5.7,0-8.9-3-8.9-8.7V34.3h6.1v5.9h6.9V45H355v12.3
			c0,2.5,1.3,3.9,3.6,3.9c1.3,0,2.5-0.3,3.4-1.1L363.6,64.4z"/>
		<path class="st2" d="M393,40v25.9h-5.8v-3.3c-2,2.5-5,3.7-8.6,3.7c-7.6,0-13.1-5.2-13.1-13.3s5.5-13.2,13.1-13.2
			c3.3,0,6.2,1.1,8.3,3.4V40H393z M387,52.9c0-4.9-3.3-8.1-7.7-8.1c-4.4,0-7.6,3.1-7.6,8.1s3.3,8.1,7.6,8.1
			C383.7,61,387,57.9,387,52.9z"/>
		<path class="st2" d="M428.4,52.9c0,8-5.6,13.3-13.1,13.3c-3.5,0-6.5-1.2-8.6-3.7v3.3h-5.8V29.9h6.1v13.2c2.1-2.3,5-3.4,8.3-3.4
			C422.8,39.7,428.4,44.9,428.4,52.9z M422.2,52.9c0-4.9-3.3-8.1-7.7-8.1s-7.7,3.1-7.7,8.1s3.3,8.1,7.7,8.1S422.2,57.9,422.2,52.9z"
			/>
		<path class="st2" d="M432,52.9c0-7.7,5.8-13.2,13.8-13.2s13.8,5.5,13.8,13.2s-5.8,13.3-13.8,13.3C437.8,66.2,432,60.7,432,52.9z
			 M453.4,52.9c0-4.9-3.3-8.1-7.7-8.1c-4.4,0-7.6,3.1-7.6,8.1s3.3,8.1,7.6,8.1C450.1,61,453.4,57.9,453.4,52.9z"/>
		<path class="st2" d="M490.6,40v25.9h-5.8v-3.3c-2,2.5-5,3.7-8.6,3.7c-7.6,0-13.1-5.2-13.1-13.3s5.5-13.2,13.1-13.2
			c3.3,0,6.2,1.1,8.3,3.4V40H490.6z M472.5,36.2h-3.2c0.1-4,2.1-6.5,5.2-6.5c3.2,0,4.8,3.2,6.6,3.2c1.4,0,2.3-1,2.4-2.8h3.2
			c-0.1,3.8-2.1,6.3-5.2,6.3c-3.2,0-4.8-3.2-6.6-3.2C473.5,33.3,472.6,34.3,472.5,36.2z M484.7,52.9c0-4.9-3.3-8.1-7.7-8.1
			c-4.4,0-7.6,3.1-7.6,8.1s3.3,8.1,7.6,8.1C481.4,61,484.7,57.9,484.7,52.9z"/>
		<path class="st2" d="M496.4,52.9c0-7.7,5.8-13.2,13.8-13.2c8,0,13.8,5.5,13.8,13.2s-5.8,13.3-13.8,13.3
			C502.2,66.2,496.4,60.7,496.4,52.9z M517.9,52.9c0-4.9-3.3-8.1-7.7-8.1c-4.4,0-7.6,3.1-7.6,8.1s3.3,8.1,7.6,8.1
			C514.6,61,517.9,57.9,517.9,52.9z"/>
	</g>
	<g>
		<g>
			<path class="st2" d="M25.5,37.2V74h39.9V49.9c0-1.2,1-2.2,2.2-2.2h12.6c1.2,0,2.2,1,2.2,2.2V74h8.1V37.2H25.5z M58.6,65.1
				c0,1.3-1,2.3-2.3,2.3h-23c-1.3,0-2.3-1-2.3-2.3V50c0-1.3,1-2.3,2.3-2.3h23c1.3,0,2.3,1,2.3,2.3V65.1z"/>
			<path class="st44" d="M21.7,43.3L21.7,43.3c-3.3,0-6-2.7-6-6v-3.8h12.1v3.8C27.8,40.6,25.1,43.3,21.7,43.3z"/>
			<polygon class="st45" points="29.9,22.4 37.9,22.4 27.8,33.4 15.7,33.4 			"/>
			<path class="st46" d="M33.8,43.3L33.8,43.3c-3.3,0-6-2.7-6-6v-3.8h12.1v3.8C39.8,40.6,37.1,43.3,33.8,43.3z"/>
			<polygon class="st47" points="37.9,22.4 45.9,22.4 39.8,33.4 27.8,33.4 			"/>
			<path class="st44" d="M45.9,43.3L45.9,43.3c-3.3,0-6-2.7-6-6v-3.8H52v3.8C51.9,40.6,49.2,43.3,45.9,43.3z"/>
			<polygon class="st45" points="45.9,22.4 53.9,22.4 51.9,33.4 39.8,33.4 			"/>
			<path class="st46" d="M57.9,43.3L57.9,43.3c-3.3,0-6-2.7-6-6v-3.8H64v3.8C64,40.6,61.3,43.3,57.9,43.3z"/>
			<polygon class="st47" points="53.9,22.4 62,22.4 64,33.4 51.9,33.4 			"/>
			<path class="st44" d="M70,43.3L70,43.3c-3.3,0-6-2.7-6-6v-3.8h12v3.8C76,40.6,73.3,43.3,70,43.3z"/>
			<polygon class="st45" points="62,22.4 70,22.4 76,33.4 64,33.4 			"/>
			<path class="st46" d="M82.1,43.3L82.1,43.3c-3.3,0-6-2.7-6-6v-3.8h12.1v3.8C88.1,40.6,85.4,43.3,82.1,43.3z"/>
			<polygon class="st47" points="70,22.4 78,22.4 88.1,33.4 76,33.4 			"/>
			<path class="st44" d="M94.2,43.3L94.2,43.3c-3.3,0-6-2.7-6-6v-3.8h12.1v3.8C100.2,40.6,97.5,43.3,94.2,43.3z"/>
			<polygon class="st45" points="78,22.4 86,22.4 100.2,33.4 88.1,33.4 			"/>
		</g>
		<path class="st54" d="M-9.7,85.5h-47.2c-1.3,0-2.4-1.1-2.4-2.4V58c0-1.3,1.1-2.4,2.4-2.4h47.1c1.3,0,2.4,1.1,2.4,2.4v25.1
			C-7.3,84.4-8.4,85.5-9.7,85.5z"/>
	</g>
</g>
<text transform="matrix(1 0 0 1 -145.332 -126.7744)" class="st1" style="font-family:'MontserratAlternates-Medium'; font-size:48.4155px;">comércio</text>
<text transform="matrix(1 0 0 1 85.568 -126.7744)" class="st1" style="font-family:'MontserratAlternates-Thin'; font-size:48.4155px;"> </text>
<text transform="matrix(1 0 0 1 97.668 -126.7744)" class="st1" style="font-family:'MontserratAlternates-SemiBold'; font-size:48.4155px;">taboão</text>
<text transform="matrix(1 0 0 1 97.668 -126.7744)" style="fill:none;stroke:#2BB7DA;stroke-width:2;stroke-miterlimit:10; font-family:'MontserratAlternates-SemiBold'; font-size:48.4155px;">taboão</text>
<g>
	<path class="st2" d="M-222.7-155.4v36.7h39.9v-24.1c0-1.2,1-2.2,2.2-2.2h12.6c1.2,0,2.2,1,2.2,2.2v24.1h8.1v-36.7L-222.7-155.4
		L-222.7-155.4z M-189.6-127.5c0,1.3-1,2.3-2.3,2.3h-23c-1.3,0-2.3-1-2.3-2.3v-15.1c0-1.3,1-2.3,2.3-2.3h23c1.3,0,2.3,1,2.3,2.3
		V-127.5z"/>
	<path class="st44" d="M-226.5-149.3L-226.5-149.3c-3.3,0-6-2.7-6-6v-3.8h12.1v3.8C-220.4-152.1-223.1-149.3-226.5-149.3z"/>
	<polygon class="st45" points="-218.3,-170.2 -210.3,-170.2 -220.4,-159.2 -232.5,-159.2 	"/>
	<path class="st46" d="M-214.4-149.3L-214.4-149.3c-3.3,0-6-2.7-6-6v-3.8h12.1v3.8C-208.4-152.1-211.1-149.3-214.4-149.3z"/>
	<polygon class="st47" points="-210.3,-170.2 -202.3,-170.2 -208.4,-159.2 -220.4,-159.2 	"/>
	<path class="st44" d="M-202.3-149.3L-202.3-149.3c-3.3,0-6-2.7-6-6v-3.8h12.1v3.8C-196.3-152.1-199-149.3-202.3-149.3z"/>
	<polygon class="st45" points="-202.3,-170.2 -194.3,-170.2 -196.3,-159.2 -208.4,-159.2 	"/>
	<path class="st46" d="M-190.3-149.3L-190.3-149.3c-3.3,0-6-2.7-6-6v-3.8h12.1v3.8C-184.2-152.1-186.9-149.3-190.3-149.3z"/>
	<polygon class="st47" points="-194.3,-170.2 -186.2,-170.2 -184.2,-159.2 -196.3,-159.2 	"/>
	<path class="st44" d="M-178.2-149.3L-178.2-149.3c-3.3,0-6-2.7-6-6v-3.8h12.1v3.8C-172.1-152.1-174.8-149.3-178.2-149.3z"/>
	<polygon class="st45" points="-186.2,-170.2 -178.2,-170.2 -172.1,-159.2 -184.2,-159.2 	"/>
	<path class="st46" d="M-166.1-149.3L-166.1-149.3c-3.3,0-6-2.7-6-6v-3.8h12.1v3.8C-160.1-152.1-162.8-149.3-166.1-149.3z"/>
	<polygon class="st47" points="-178.2,-170.2 -170.2,-170.2 -160.1,-159.2 -172.1,-159.2 	"/>
	<path class="st44" d="M-154-149.3L-154-149.3c-3.3,0-6-2.7-6-6v-3.8h12.1v3.8C-148-152.1-150.7-149.3-154-149.3z"/>
	<polygon class="st45" points="-170.2,-170.2 -162.2,-170.2 -148,-159.2 -160.1,-159.2 	"/>
</g>
<path class="st54" d="M-167.4-115h-47.1c-1.3,0-2.4-1.1-2.4-2.4v-25.1c0-1.3,1.1-2.4,2.4-2.4h47.1c1.3,0,2.4,1.1,2.4,2.4v25.1
	C-165-116.1-166.1-115-167.4-115z"/>
</svg>
